M48
METRIC,TZ
T1C0.635
T2C0.800
T3C0.813
T4C1.001
T5C1.849
%
G90
G05
T1
X83.947Y-51.689
X84.201Y-49.911
X85.979Y-48.895
X88.011Y-48.895
X89.408Y-51.181
X91.694Y-51.181
X125.730Y-43.180
X129.540Y-46.990
X129.540Y-50.800
X129.540Y-54.610
X130.810Y-43.180
X135.890Y-43.180
X135.890Y-46.990
X135.890Y-54.610
X140.970Y-43.180
X142.240Y-46.990
X142.240Y-50.800
X142.240Y-54.610
X146.050Y-43.180
X146.050Y-54.610
T2
X55.245Y-55.245
X55.245Y-57.785
X61.595Y-55.245
X61.595Y-57.785
X67.945Y-55.245
X67.945Y-57.785
X74.295Y-55.245
X74.295Y-57.785
X74.930Y-41.910
X74.930Y-44.450
X77.470Y-41.910
X77.470Y-44.450
X77.470Y-51.054
X80.010Y-41.910
X80.645Y-55.245
X80.645Y-57.785
X82.550Y-41.910
X85.090Y-41.910
X86.995Y-55.245
X86.995Y-57.785
X90.170Y-48.260
X92.710Y-48.260
X93.345Y-55.245
X93.345Y-57.785
X94.488Y-51.308
X95.250Y-48.260
X99.695Y-55.245
X99.695Y-57.785
X124.714Y-57.404
X127.254Y-57.404
T3
X52.070Y-55.245
X52.070Y-57.785
X52.512Y-60.000
X52.603Y-61.852
X52.603Y-65.847
X52.603Y-69.842
X52.603Y-73.838
X52.603Y-77.833
X52.603Y-81.829
X52.603Y-85.824
X52.705Y-43.180
X52.705Y-50.800
X54.402Y-63.650
X54.402Y-67.645
X54.402Y-71.641
X54.402Y-75.636
X54.402Y-79.632
X54.402Y-83.627
X54.402Y-87.622
X54.493Y-60.000
X55.245Y-43.180
X55.245Y-50.800
X56.512Y-60.000
X56.604Y-61.852
X56.604Y-65.847
X56.604Y-69.842
X56.604Y-73.838
X56.604Y-77.833
X56.604Y-81.829
X56.604Y-85.824
X57.785Y-43.180
X57.785Y-50.800
X58.402Y-63.650
X58.402Y-67.645
X58.402Y-71.641
X58.402Y-75.636
X58.402Y-79.632
X58.402Y-83.627
X58.402Y-87.622
X58.420Y-55.245
X58.420Y-57.785
X58.494Y-60.000
X60.325Y-43.180
X60.325Y-50.800
X60.513Y-60.000
X60.604Y-61.852
X60.604Y-65.847
X60.604Y-69.842
X60.604Y-73.838
X60.604Y-77.833
X60.604Y-81.829
X60.604Y-85.824
X62.403Y-63.650
X62.403Y-67.645
X62.403Y-71.641
X62.403Y-75.636
X62.403Y-79.632
X62.403Y-83.627
X62.403Y-87.622
X62.494Y-60.000
X62.865Y-43.180
X62.865Y-50.800
X64.513Y-60.000
X64.605Y-61.852
X64.605Y-65.847
X64.605Y-69.842
X64.605Y-73.838
X64.605Y-77.833
X64.605Y-81.829
X64.605Y-85.824
X64.770Y-55.245
X64.770Y-57.785
X65.405Y-43.180
X65.405Y-50.800
X66.403Y-63.650
X66.403Y-67.645
X66.403Y-71.641
X66.403Y-75.636
X66.403Y-79.632
X66.403Y-83.627
X66.403Y-87.622
X66.495Y-60.000
X67.945Y-43.180
X67.945Y-50.800
X68.514Y-60.000
X68.605Y-61.852
X68.605Y-65.847
X68.605Y-69.842
X68.605Y-73.838
X68.605Y-77.833
X68.605Y-81.829
X68.605Y-85.824
X70.404Y-63.650
X70.404Y-67.645
X70.404Y-71.641
X70.404Y-75.636
X70.404Y-79.632
X70.404Y-83.627
X70.404Y-87.622
X70.485Y-43.180
X70.485Y-50.800
X70.495Y-60.000
X71.120Y-55.245
X71.120Y-57.785
X72.514Y-60.000
X72.606Y-61.852
X72.606Y-65.847
X72.606Y-69.842
X72.606Y-73.838
X72.606Y-77.833
X72.606Y-81.829
X72.606Y-85.824
X74.404Y-63.650
X74.404Y-67.645
X74.404Y-71.641
X74.404Y-75.636
X74.404Y-79.632
X74.404Y-83.627
X74.404Y-87.622
X74.496Y-60.000
X74.930Y-46.990
X74.930Y-49.530
X76.515Y-60.000
X76.606Y-61.852
X76.606Y-65.847
X76.606Y-69.842
X76.606Y-73.838
X76.606Y-77.833
X76.606Y-81.829
X76.606Y-85.824
X77.470Y-55.245
X77.470Y-57.785
X78.405Y-63.650
X78.405Y-67.645
X78.405Y-71.641
X78.405Y-75.636
X78.405Y-79.632
X78.405Y-83.627
X78.405Y-87.622
X78.496Y-60.000
X80.515Y-60.000
X80.607Y-61.852
X80.607Y-65.847
X80.607Y-69.842
X80.607Y-73.838
X80.607Y-77.833
X80.607Y-81.829
X80.607Y-85.824
X82.405Y-63.650
X82.405Y-67.645
X82.405Y-71.641
X82.405Y-75.636
X82.405Y-79.632
X82.405Y-83.627
X82.405Y-87.622
X82.497Y-60.000
X83.820Y-55.245
X83.820Y-57.785
X84.516Y-60.000
X84.607Y-61.852
X84.607Y-65.847
X84.607Y-69.842
X84.607Y-73.838
X84.607Y-77.833
X84.607Y-81.829
X84.607Y-85.824
X86.406Y-63.650
X86.406Y-67.645
X86.406Y-71.641
X86.406Y-75.636
X86.406Y-79.632
X86.406Y-83.627
X86.406Y-87.622
X86.497Y-60.000
X88.516Y-60.000
X88.608Y-61.852
X88.608Y-65.847
X88.608Y-69.842
X88.608Y-73.838
X88.608Y-77.833
X88.608Y-81.829
X88.608Y-85.824
X89.535Y-41.910
X89.535Y-44.450
X90.170Y-55.245
X90.170Y-57.785
X90.406Y-63.650
X90.406Y-67.645
X90.406Y-71.641
X90.406Y-75.636
X90.406Y-79.632
X90.406Y-83.627
X90.406Y-87.622
X90.498Y-60.000
X92.517Y-60.000
X92.608Y-61.852
X92.608Y-65.847
X92.608Y-69.842
X92.608Y-73.838
X92.608Y-77.833
X92.608Y-81.829
X92.608Y-85.824
X93.345Y-41.910
X93.345Y-44.450
X94.407Y-63.650
X94.407Y-67.645
X94.407Y-71.641
X94.407Y-75.636
X94.407Y-79.632
X94.407Y-83.627
X94.407Y-87.622
X94.498Y-60.000
X96.517Y-60.000
X96.520Y-55.245
X96.520Y-57.785
X96.609Y-61.852
X96.609Y-65.847
X96.609Y-69.842
X96.609Y-73.838
X96.609Y-77.833
X96.609Y-81.829
X96.609Y-85.824
X97.264Y-41.910
X98.407Y-63.650
X98.407Y-67.645
X98.407Y-71.641
X98.407Y-75.636
X98.407Y-79.632
X98.407Y-83.627
X98.407Y-87.622
X98.499Y-60.000
X99.060Y-43.706
X99.060Y-48.895
X99.060Y-51.435
X100.518Y-60.000
X100.609Y-61.852
X100.609Y-65.847
X100.609Y-69.842
X100.609Y-73.838
X100.609Y-77.833
X100.609Y-81.829
X100.609Y-85.824
X100.856Y-41.910
X102.235Y-47.734
X102.235Y-51.326
X102.408Y-63.650
X102.408Y-67.645
X102.408Y-71.641
X102.408Y-75.636
X102.408Y-79.632
X102.408Y-83.627
X102.408Y-87.622
X102.499Y-60.000
X104.031Y-49.530
X104.518Y-60.000
X104.610Y-61.852
X104.610Y-65.847
X104.610Y-69.842
X104.610Y-73.838
X104.610Y-77.833
X104.610Y-81.829
X104.610Y-85.824
X105.410Y-54.610
X105.410Y-57.150
X106.045Y-41.910
X106.045Y-44.450
X106.408Y-63.650
X106.408Y-67.645
X106.408Y-71.641
X106.408Y-75.636
X106.408Y-79.632
X106.408Y-83.627
X106.408Y-87.622
X106.500Y-60.000
X108.059Y-48.260
X108.519Y-60.000
X108.610Y-61.852
X108.610Y-65.847
X108.610Y-69.842
X108.610Y-73.838
X108.610Y-77.833
X108.610Y-81.829
X108.610Y-85.824
X109.220Y-41.910
X109.220Y-45.085
X109.220Y-53.975
X109.220Y-57.150
X109.855Y-50.056
X110.409Y-63.650
X110.409Y-67.645
X110.409Y-71.641
X110.409Y-75.636
X110.409Y-79.632
X110.409Y-83.627
X110.409Y-87.622
X110.500Y-60.000
X111.651Y-48.260
X111.760Y-41.910
X111.760Y-45.085
X111.760Y-53.975
X111.760Y-57.150
X112.519Y-60.000
X112.611Y-61.852
X112.611Y-65.847
X112.611Y-69.842
X112.611Y-73.838
X112.611Y-77.833
X112.611Y-81.829
X112.611Y-85.824
X114.409Y-63.650
X114.409Y-67.645
X114.409Y-71.641
X114.409Y-75.636
X114.409Y-79.632
X114.409Y-83.627
X114.409Y-87.622
X114.501Y-60.000
X116.520Y-60.000
X116.611Y-61.852
X116.611Y-65.847
X116.611Y-69.842
X116.611Y-73.838
X116.611Y-77.833
X116.611Y-81.829
X116.611Y-85.824
X118.410Y-63.650
X118.410Y-67.645
X118.410Y-71.641
X118.410Y-75.636
X118.410Y-79.632
X118.410Y-83.627
X118.410Y-87.622
X118.501Y-60.000
X120.520Y-60.000
X120.612Y-61.852
X120.612Y-65.847
X120.612Y-69.842
X120.612Y-73.838
X120.612Y-77.833
X120.612Y-81.829
X120.612Y-85.824
X122.410Y-63.650
X122.410Y-67.645
X122.410Y-71.641
X122.410Y-75.636
X122.410Y-79.632
X122.410Y-83.627
X122.410Y-87.622
X122.502Y-60.000
X124.521Y-60.000
X124.612Y-61.852
X124.612Y-65.847
X124.612Y-69.842
X124.612Y-73.838
X124.612Y-77.833
X124.612Y-81.829
X124.612Y-85.824
X126.411Y-63.650
X126.411Y-67.645
X126.411Y-71.641
X126.411Y-75.636
X126.411Y-79.632
X126.411Y-83.627
X126.411Y-87.622
X126.502Y-60.000
X128.521Y-60.000
X128.613Y-61.852
X128.613Y-65.847
X128.613Y-69.842
X128.613Y-73.838
X128.613Y-77.833
X128.613Y-81.829
X128.613Y-85.824
X130.411Y-63.650
X130.411Y-67.645
X130.411Y-71.641
X130.411Y-75.636
X130.411Y-79.632
X130.411Y-83.627
X130.411Y-87.622
X130.503Y-60.000
X132.522Y-60.000
X132.613Y-61.852
X132.613Y-65.847
X132.613Y-69.842
X132.613Y-73.838
X132.613Y-77.833
X132.613Y-81.829
X132.613Y-85.824
X134.412Y-63.650
X134.412Y-67.645
X134.412Y-71.641
X134.412Y-75.636
X134.412Y-79.632
X134.412Y-83.627
X134.412Y-87.622
X134.503Y-60.000
X136.522Y-60.000
X136.614Y-61.852
X136.614Y-65.847
X136.614Y-69.842
X136.614Y-73.838
X136.614Y-77.833
X136.614Y-81.829
X136.614Y-85.824
X138.412Y-63.650
X138.412Y-67.645
X138.412Y-71.641
X138.412Y-75.636
X138.412Y-79.632
X138.412Y-83.627
X138.412Y-87.622
X138.504Y-60.000
X140.523Y-60.000
X140.614Y-61.852
X140.614Y-65.847
X140.614Y-69.842
X140.614Y-73.838
X140.614Y-77.833
X140.614Y-81.829
X140.614Y-85.824
X142.413Y-63.650
X142.413Y-67.645
X142.413Y-71.641
X142.413Y-75.636
X142.413Y-79.632
X142.413Y-83.627
X142.413Y-87.622
X142.504Y-60.000
X144.523Y-60.000
X144.615Y-61.852
X144.615Y-65.847
X144.615Y-69.842
X144.615Y-73.838
X144.615Y-77.833
X144.615Y-81.829
X144.615Y-85.824
X146.413Y-63.650
X146.413Y-67.645
X146.413Y-71.641
X146.413Y-75.636
X146.413Y-79.632
X146.413Y-83.627
X146.413Y-87.622
X146.505Y-60.000
T4
X80.569Y-46.645
X80.569Y-51.145
X87.069Y-46.645
X87.069Y-51.145
X116.677Y-44.768
X117.678Y-51.158
X117.678Y-56.157
X119.177Y-42.268
X119.177Y-47.267
X120.178Y-53.658
T5
X125.334Y-48.895
X146.446Y-48.895
T0
M30
