M48
METRIC,TZ
T1C0.635
T2C0.813
T3C1.001
T4C1.016
T5C1.849
%
G90
G05
T1
X124.000Y-54.249
X124.750Y-45.250
X125.001Y-41.750
X128.999Y-41.999
X130.749Y-47.000
X131.501Y-53.500
X132.001Y-56.751
X133.251Y-42.499
X137.249Y-57.501
X137.749Y-53.500
X138.250Y-42.499
X141.501Y-45.999
X141.501Y-53.749
X142.001Y-57.249
X143.251Y-50.749
X146.251Y-41.999
X146.251Y-57.501
X146.500Y-45.499
X146.751Y-53.251
T2
X52.070Y-55.245
X52.070Y-57.785
X52.258Y-60.000
X52.349Y-61.852
X52.349Y-65.847
X52.349Y-69.842
X52.349Y-73.838
X52.349Y-77.833
X52.349Y-81.829
X52.349Y-85.824
X52.705Y-43.180
X52.705Y-50.800
X54.148Y-63.650
X54.148Y-67.645
X54.148Y-71.641
X54.148Y-75.636
X54.148Y-79.632
X54.148Y-83.627
X54.148Y-87.622
X54.239Y-60.000
X55.245Y-43.180
X55.245Y-50.800
X56.258Y-60.000
X56.350Y-61.852
X56.350Y-65.847
X56.350Y-69.842
X56.350Y-73.838
X56.350Y-77.833
X56.350Y-81.829
X56.350Y-85.824
X57.785Y-43.180
X57.785Y-50.800
X58.148Y-63.650
X58.148Y-67.645
X58.148Y-71.641
X58.148Y-75.636
X58.148Y-79.632
X58.148Y-83.627
X58.148Y-87.622
X58.240Y-60.000
X58.420Y-55.245
X58.420Y-57.785
X60.259Y-60.000
X60.325Y-43.180
X60.325Y-50.800
X60.350Y-61.852
X60.350Y-65.847
X60.350Y-69.842
X60.350Y-73.838
X60.350Y-77.833
X60.350Y-81.829
X60.350Y-85.824
X62.149Y-63.650
X62.149Y-67.645
X62.149Y-71.641
X62.149Y-75.636
X62.149Y-79.632
X62.149Y-83.627
X62.149Y-87.622
X62.240Y-60.000
X62.865Y-43.180
X62.865Y-50.800
X64.259Y-60.000
X64.351Y-61.852
X64.351Y-65.847
X64.351Y-69.842
X64.351Y-73.838
X64.351Y-77.833
X64.351Y-81.829
X64.351Y-85.824
X64.770Y-55.245
X64.770Y-57.785
X65.405Y-43.180
X65.405Y-50.800
X66.149Y-63.650
X66.149Y-67.645
X66.149Y-71.641
X66.149Y-75.636
X66.149Y-79.632
X66.149Y-83.627
X66.149Y-87.622
X66.241Y-60.000
X67.945Y-43.180
X67.945Y-50.800
X68.260Y-60.000
X68.351Y-61.852
X68.351Y-65.847
X68.351Y-69.842
X68.351Y-73.838
X68.351Y-77.833
X68.351Y-81.829
X68.351Y-85.824
X70.150Y-63.650
X70.150Y-67.645
X70.150Y-71.641
X70.150Y-75.636
X70.150Y-79.632
X70.150Y-83.627
X70.150Y-87.622
X70.241Y-60.000
X70.485Y-43.180
X70.485Y-50.800
X71.120Y-55.245
X71.120Y-57.785
X72.260Y-60.000
X72.352Y-61.852
X72.352Y-65.847
X72.352Y-69.842
X72.352Y-73.838
X72.352Y-77.833
X72.352Y-81.829
X72.352Y-85.824
X74.150Y-63.650
X74.150Y-67.645
X74.150Y-71.641
X74.150Y-75.636
X74.150Y-79.632
X74.150Y-83.627
X74.150Y-87.622
X74.242Y-60.000
X74.930Y-46.990
X74.930Y-49.530
X76.261Y-60.000
X76.352Y-61.852
X76.352Y-65.847
X76.352Y-69.842
X76.352Y-73.838
X76.352Y-77.833
X76.352Y-81.829
X76.352Y-85.824
X77.470Y-55.245
X77.470Y-57.785
X78.151Y-63.650
X78.151Y-67.645
X78.151Y-71.641
X78.151Y-75.636
X78.151Y-79.632
X78.151Y-83.627
X78.151Y-87.622
X78.242Y-60.000
X80.261Y-60.000
X80.353Y-61.852
X80.353Y-65.847
X80.353Y-69.842
X80.353Y-73.838
X80.353Y-77.833
X80.353Y-81.829
X80.353Y-85.824
X82.151Y-63.650
X82.151Y-67.645
X82.151Y-71.641
X82.151Y-75.636
X82.151Y-79.632
X82.151Y-83.627
X82.151Y-87.622
X82.243Y-60.000
X83.820Y-55.245
X83.820Y-57.785
X84.262Y-60.000
X84.353Y-61.852
X84.353Y-65.847
X84.353Y-69.842
X84.353Y-73.838
X84.353Y-77.833
X84.353Y-81.829
X84.353Y-85.824
X86.152Y-63.650
X86.152Y-67.645
X86.152Y-71.641
X86.152Y-75.636
X86.152Y-79.632
X86.152Y-83.627
X86.152Y-87.622
X86.243Y-60.000
X88.262Y-60.000
X88.354Y-61.852
X88.354Y-65.847
X88.354Y-69.842
X88.354Y-73.838
X88.354Y-77.833
X88.354Y-81.829
X88.354Y-85.824
X89.535Y-41.910
X89.535Y-44.450
X90.152Y-63.650
X90.152Y-67.645
X90.152Y-71.641
X90.152Y-75.636
X90.152Y-79.632
X90.152Y-83.627
X90.152Y-87.622
X90.170Y-55.245
X90.170Y-57.785
X90.244Y-60.000
X92.263Y-60.000
X92.354Y-61.852
X92.354Y-65.847
X92.354Y-69.842
X92.354Y-73.838
X92.354Y-77.833
X92.354Y-81.829
X92.354Y-85.824
X93.345Y-41.910
X93.345Y-44.450
X94.153Y-63.650
X94.153Y-67.645
X94.153Y-71.641
X94.153Y-75.636
X94.153Y-79.632
X94.153Y-83.627
X94.153Y-87.622
X94.244Y-60.000
X96.263Y-60.000
X96.355Y-61.852
X96.355Y-65.847
X96.355Y-69.842
X96.355Y-73.838
X96.355Y-77.833
X96.355Y-81.829
X96.355Y-85.824
X96.520Y-55.245
X96.520Y-57.785
X97.264Y-41.910
X98.153Y-63.650
X98.153Y-67.645
X98.153Y-71.641
X98.153Y-75.636
X98.153Y-79.632
X98.153Y-83.627
X98.153Y-87.622
X98.245Y-60.000
X99.060Y-43.706
X99.060Y-48.895
X99.060Y-51.435
X100.264Y-60.000
X100.355Y-61.852
X100.355Y-65.847
X100.355Y-69.842
X100.355Y-73.838
X100.355Y-77.833
X100.355Y-81.829
X100.355Y-85.824
X100.856Y-41.910
X102.154Y-63.650
X102.154Y-67.645
X102.154Y-71.641
X102.154Y-75.636
X102.154Y-79.632
X102.154Y-83.627
X102.154Y-87.622
X102.235Y-47.734
X102.235Y-51.326
X102.245Y-60.000
X104.031Y-49.530
X104.264Y-60.000
X104.356Y-61.852
X104.356Y-65.847
X104.356Y-69.842
X104.356Y-73.838
X104.356Y-77.833
X104.356Y-81.829
X104.356Y-85.824
X106.045Y-41.910
X106.045Y-44.450
X106.045Y-54.610
X106.045Y-57.150
X106.154Y-63.650
X106.154Y-67.645
X106.154Y-71.641
X106.154Y-75.636
X106.154Y-79.632
X106.154Y-83.627
X106.154Y-87.622
X106.246Y-60.000
X108.059Y-48.260
X108.265Y-60.000
X108.356Y-61.852
X108.356Y-65.847
X108.356Y-69.842
X108.356Y-73.838
X108.356Y-77.833
X108.356Y-81.829
X108.356Y-85.824
X109.220Y-41.910
X109.220Y-45.085
X109.220Y-53.975
X109.220Y-57.150
X109.855Y-50.056
X110.155Y-63.650
X110.155Y-67.645
X110.155Y-71.641
X110.155Y-75.636
X110.155Y-79.632
X110.155Y-83.627
X110.155Y-87.622
X110.246Y-60.000
X111.651Y-48.260
X111.760Y-41.910
X111.760Y-45.085
X111.760Y-53.975
X111.760Y-57.150
X112.265Y-60.000
X112.357Y-61.852
X112.357Y-65.847
X112.357Y-69.842
X112.357Y-73.838
X112.357Y-77.833
X112.357Y-81.829
X112.357Y-85.824
X114.155Y-63.650
X114.155Y-67.645
X114.155Y-71.641
X114.155Y-75.636
X114.155Y-79.632
X114.155Y-83.627
X114.155Y-87.622
X114.247Y-60.000
X116.266Y-60.000
X116.357Y-61.852
X116.357Y-65.847
X116.357Y-69.842
X116.357Y-73.838
X116.357Y-77.833
X116.357Y-81.829
X116.357Y-85.824
X118.156Y-63.650
X118.156Y-67.645
X118.156Y-71.641
X118.156Y-75.636
X118.156Y-79.632
X118.156Y-83.627
X118.156Y-87.622
X118.247Y-60.000
X120.266Y-60.000
X120.358Y-61.852
X120.358Y-65.847
X120.358Y-69.842
X120.358Y-73.838
X120.358Y-77.833
X120.358Y-81.829
X120.358Y-85.824
X122.156Y-63.650
X122.156Y-67.645
X122.156Y-71.641
X122.156Y-75.636
X122.156Y-79.632
X122.156Y-83.627
X122.156Y-87.622
X122.248Y-60.000
X124.267Y-60.000
X124.358Y-61.852
X124.358Y-65.847
X124.358Y-69.842
X124.358Y-73.838
X124.358Y-77.833
X124.358Y-81.829
X124.358Y-85.824
X126.157Y-63.650
X126.157Y-67.645
X126.157Y-71.641
X126.157Y-75.636
X126.157Y-79.632
X126.157Y-83.627
X126.157Y-87.622
X126.248Y-60.000
X128.267Y-60.000
X128.359Y-61.852
X128.359Y-65.847
X128.359Y-69.842
X128.359Y-73.838
X128.359Y-77.833
X128.359Y-81.829
X128.359Y-85.824
X130.157Y-63.650
X130.157Y-67.645
X130.157Y-71.641
X130.157Y-75.636
X130.157Y-79.632
X130.157Y-83.627
X130.157Y-87.622
X130.249Y-60.000
X132.268Y-60.000
X132.359Y-61.852
X132.359Y-65.847
X132.359Y-69.842
X132.359Y-73.838
X132.359Y-77.833
X132.359Y-81.829
X132.359Y-85.824
X134.158Y-63.650
X134.158Y-67.645
X134.158Y-71.641
X134.158Y-75.636
X134.158Y-79.632
X134.158Y-83.627
X134.158Y-87.622
X134.249Y-60.000
X136.268Y-60.000
X136.360Y-61.852
X136.360Y-65.847
X136.360Y-69.842
X136.360Y-73.838
X136.360Y-77.833
X136.360Y-81.829
X136.360Y-85.824
X138.158Y-63.650
X138.158Y-67.645
X138.158Y-71.641
X138.158Y-75.636
X138.158Y-79.632
X138.158Y-83.627
X138.158Y-87.622
X138.250Y-60.000
X140.269Y-60.000
X140.360Y-61.852
X140.360Y-65.847
X140.360Y-69.842
X140.360Y-73.838
X140.360Y-77.833
X140.360Y-81.829
X140.360Y-85.824
X142.159Y-63.650
X142.159Y-67.645
X142.159Y-71.641
X142.159Y-75.636
X142.159Y-79.632
X142.159Y-83.627
X142.159Y-87.622
X142.250Y-60.000
X144.269Y-60.000
X144.361Y-61.852
X144.361Y-65.847
X144.361Y-69.842
X144.361Y-73.838
X144.361Y-77.833
X144.361Y-81.829
X144.361Y-85.824
X146.159Y-63.650
X146.159Y-67.645
X146.159Y-71.641
X146.159Y-75.636
X146.159Y-79.632
X146.159Y-83.627
X146.159Y-87.622
X146.251Y-60.000
T3
X80.569Y-46.645
X80.569Y-51.145
X87.069Y-46.645
X87.069Y-51.145
X116.677Y-44.768
X117.678Y-51.158
X117.678Y-56.157
X119.177Y-42.268
X119.177Y-47.267
X120.178Y-53.658
T4
X55.245Y-55.245
X55.245Y-57.785
X61.595Y-55.245
X61.595Y-57.785
X67.945Y-55.245
X67.945Y-57.785
X74.295Y-55.245
X74.295Y-57.785
X74.930Y-41.910
X74.930Y-44.450
X77.470Y-41.910
X77.470Y-44.450
X77.470Y-51.435
X80.010Y-41.910
X80.645Y-55.245
X80.645Y-57.785
X82.550Y-41.910
X85.090Y-41.910
X86.995Y-55.245
X86.995Y-57.785
X90.170Y-48.260
X92.710Y-48.260
X93.345Y-55.245
X93.345Y-57.785
X95.250Y-48.260
X96.520Y-51.435
X99.695Y-55.245
X99.695Y-57.785
X125.095Y-57.785
X127.635Y-57.785
T5
X125.334Y-48.895
X146.446Y-48.895
T0
M30
