G04 (created by PCBNEW-RS274X (2011-dec-28)-stable) date Thu 26 Jan 2012 07:30:09 PM CET*
G01*
G70*
G90*
%MOIN*%
G04 Gerber Fmt 3.4, Leading zero omitted, Abs format*
%FSLAX34Y34*%
G04 APERTURE LIST*
%ADD10C,0.006000*%
%ADD11C,0.075000*%
%ADD12R,0.082000X0.110000*%
%ADD13O,0.082000X0.110000*%
%ADD14R,0.075000X0.075000*%
%ADD15C,0.098700*%
%ADD16C,0.132200*%
%ADD17R,0.080000X0.080000*%
%ADD18C,0.080000*%
G04 APERTURE END LIST*
G54D10*
G36*
X43073Y-19000D02*
X42543Y-19530D01*
X42013Y-19000D01*
X42543Y-18470D01*
X43073Y-19000D01*
X43073Y-19000D01*
G37*
G54D11*
X43250Y-19707D03*
X43957Y-19000D03*
G54D10*
G36*
X40250Y-19677D02*
X40780Y-20207D01*
X40250Y-20737D01*
X39720Y-20207D01*
X40250Y-19677D01*
X40250Y-19677D01*
G37*
G54D11*
X40957Y-19500D03*
X40250Y-18793D03*
G54D10*
G36*
X38823Y-16500D02*
X38293Y-17030D01*
X37763Y-16500D01*
X38293Y-15970D01*
X38823Y-16500D01*
X38823Y-16500D01*
G37*
G54D11*
X39000Y-17207D03*
X39707Y-16500D03*
G54D12*
X20750Y-20000D03*
G54D13*
X21750Y-20000D03*
X22750Y-20000D03*
X23750Y-20000D03*
X24750Y-20000D03*
X25750Y-20000D03*
X26750Y-20000D03*
X27750Y-20000D03*
X27750Y-17000D03*
X26750Y-17000D03*
X25750Y-17000D03*
X24750Y-17000D03*
X23750Y-17000D03*
X22750Y-17000D03*
X21750Y-17000D03*
X20750Y-17000D03*
G54D14*
X41750Y-22500D03*
G54D11*
X41750Y-21500D03*
G54D14*
X41750Y-16500D03*
G54D11*
X41750Y-17500D03*
G54D15*
X46330Y-20141D03*
X46330Y-22109D03*
X47314Y-21125D03*
X46920Y-18609D03*
X46920Y-16641D03*
X45936Y-17625D03*
G54D16*
X49344Y-19250D03*
X57656Y-19250D03*
G54D11*
X20500Y-21750D03*
X20500Y-22750D03*
X23000Y-21750D03*
X23000Y-22750D03*
X25500Y-21750D03*
X25500Y-22750D03*
X28000Y-21750D03*
X28000Y-22750D03*
X30500Y-21750D03*
X30500Y-22750D03*
X33000Y-21750D03*
X33000Y-22750D03*
X35500Y-21750D03*
X35500Y-22750D03*
X38000Y-21750D03*
X38000Y-22750D03*
G54D17*
X21750Y-22750D03*
X24250Y-22750D03*
X26750Y-22750D03*
X29250Y-22750D03*
X31750Y-22750D03*
X34250Y-22750D03*
X36750Y-22750D03*
X39250Y-22750D03*
X38000Y-20250D03*
X21750Y-21750D03*
X24250Y-21750D03*
X26750Y-21750D03*
X29250Y-21750D03*
X31750Y-21750D03*
X34250Y-21750D03*
X36750Y-21750D03*
X39250Y-21750D03*
X30500Y-20250D03*
G54D11*
X29500Y-18500D03*
X29500Y-19500D03*
X44000Y-16500D03*
X43000Y-16500D03*
X44000Y-17750D03*
X43000Y-17750D03*
X44000Y-21250D03*
X43000Y-21250D03*
X44000Y-22500D03*
X43000Y-22500D03*
X35250Y-17500D03*
X35250Y-16500D03*
X36750Y-17500D03*
X36750Y-16500D03*
X39000Y-19250D03*
X39000Y-20250D03*
G54D17*
X35500Y-19000D03*
G54D18*
X36500Y-19000D03*
X37500Y-19000D03*
G54D17*
X50250Y-22750D03*
G54D18*
X49250Y-22750D03*
G54D17*
X29500Y-17500D03*
G54D18*
X29500Y-16500D03*
G54D17*
X30500Y-17500D03*
G54D18*
X30500Y-16500D03*
G54D17*
X31500Y-16500D03*
G54D18*
X32500Y-16500D03*
X33500Y-16500D03*
G54D15*
X34279Y-20136D03*
X34279Y-18364D03*
X31720Y-18364D03*
X31720Y-20136D03*
M02*
