G04 (created by PCBNEW-RS274X (2011-dec-28)-stable) date Thu 26 Jan 2012 07:30:09 PM CET*
G01*
G70*
G90*
%MOIN*%
G04 Gerber Fmt 3.4, Leading zero omitted, Abs format*
%FSLAX34Y34*%
G04 APERTURE LIST*
%ADD10C,0.006000*%
%ADD11C,0.075000*%
%ADD12R,0.082000X0.110000*%
%ADD13O,0.082000X0.110000*%
%ADD14R,0.075000X0.075000*%
%ADD15C,0.098700*%
%ADD16C,0.132200*%
%ADD17R,0.216900X0.216900*%
%ADD18R,0.080000X0.080000*%
%ADD19C,0.080000*%
%ADD20C,0.086000*%
G04 APERTURE END LIST*
G54D10*
G36*
X43073Y-19000D02*
X42543Y-19530D01*
X42013Y-19000D01*
X42543Y-18470D01*
X43073Y-19000D01*
X43073Y-19000D01*
G37*
G54D11*
X43250Y-19707D03*
X43957Y-19000D03*
G54D10*
G36*
X40250Y-19677D02*
X40780Y-20207D01*
X40250Y-20737D01*
X39720Y-20207D01*
X40250Y-19677D01*
X40250Y-19677D01*
G37*
G54D11*
X40957Y-19500D03*
X40250Y-18793D03*
G54D10*
G36*
X38823Y-16500D02*
X38293Y-17030D01*
X37763Y-16500D01*
X38293Y-15970D01*
X38823Y-16500D01*
X38823Y-16500D01*
G37*
G54D11*
X39000Y-17207D03*
X39707Y-16500D03*
G54D12*
X20750Y-20000D03*
G54D13*
X21750Y-20000D03*
X22750Y-20000D03*
X23750Y-20000D03*
X24750Y-20000D03*
X25750Y-20000D03*
X26750Y-20000D03*
X27750Y-20000D03*
X27750Y-17000D03*
X26750Y-17000D03*
X25750Y-17000D03*
X24750Y-17000D03*
X23750Y-17000D03*
X22750Y-17000D03*
X21750Y-17000D03*
X20750Y-17000D03*
G54D14*
X41750Y-22500D03*
G54D11*
X41750Y-21500D03*
G54D14*
X41750Y-16500D03*
G54D11*
X41750Y-17500D03*
G54D15*
X46330Y-20141D03*
X46330Y-22109D03*
X47314Y-21125D03*
X46920Y-18609D03*
X46920Y-16641D03*
X45936Y-17625D03*
G54D16*
X49344Y-19250D03*
X57656Y-19250D03*
G54D17*
X53500Y-19250D03*
G54D11*
X20500Y-21750D03*
X20500Y-22750D03*
X23000Y-21750D03*
X23000Y-22750D03*
X25500Y-21750D03*
X25500Y-22750D03*
X28000Y-21750D03*
X28000Y-22750D03*
X30500Y-21750D03*
X30500Y-22750D03*
X33000Y-21750D03*
X33000Y-22750D03*
X35500Y-21750D03*
X35500Y-22750D03*
X38000Y-21750D03*
X38000Y-22750D03*
G54D18*
X21750Y-22750D03*
X24250Y-22750D03*
X26750Y-22750D03*
X29250Y-22750D03*
X31750Y-22750D03*
X34250Y-22750D03*
X36750Y-22750D03*
X39250Y-22750D03*
X38000Y-20250D03*
X21750Y-21750D03*
X24250Y-21750D03*
X26750Y-21750D03*
X29250Y-21750D03*
X31750Y-21750D03*
X34250Y-21750D03*
X36750Y-21750D03*
X39250Y-21750D03*
X30500Y-20250D03*
G54D11*
X29500Y-18500D03*
X29500Y-19500D03*
X44000Y-16500D03*
X43000Y-16500D03*
X44000Y-17750D03*
X43000Y-17750D03*
X44000Y-21250D03*
X43000Y-21250D03*
X44000Y-22500D03*
X43000Y-22500D03*
X35250Y-17500D03*
X35250Y-16500D03*
X36750Y-17500D03*
X36750Y-16500D03*
X39000Y-19250D03*
X39000Y-20250D03*
G54D18*
X35500Y-19000D03*
G54D19*
X36500Y-19000D03*
X37500Y-19000D03*
G54D18*
X50250Y-22750D03*
G54D19*
X49250Y-22750D03*
G54D18*
X29500Y-17500D03*
G54D19*
X29500Y-16500D03*
G54D18*
X30500Y-17500D03*
G54D19*
X30500Y-16500D03*
G54D18*
X31500Y-16500D03*
G54D19*
X32500Y-16500D03*
X33500Y-16500D03*
G54D15*
X34279Y-20136D03*
X34279Y-18364D03*
X31720Y-18364D03*
X31720Y-20136D03*
G54D20*
X55260Y-30643D03*
X55968Y-31351D03*
X55260Y-33789D03*
X55968Y-34497D03*
X55260Y-32216D03*
X55968Y-32924D03*
X56835Y-27497D03*
X57543Y-28205D03*
X56835Y-24351D03*
X57543Y-25059D03*
X56835Y-25924D03*
X57543Y-26632D03*
X53685Y-32216D03*
X54393Y-32924D03*
X55260Y-29070D03*
X55968Y-29778D03*
X55260Y-27497D03*
X55968Y-28205D03*
X55260Y-25924D03*
X55968Y-26632D03*
X55260Y-24351D03*
X55968Y-25059D03*
X53685Y-33789D03*
X54393Y-34497D03*
X50535Y-29070D03*
X51243Y-29778D03*
X56835Y-29070D03*
X57543Y-29778D03*
X56835Y-30643D03*
X57543Y-31351D03*
X56835Y-32216D03*
X57543Y-32924D03*
X56835Y-33789D03*
X57543Y-34497D03*
X50535Y-33789D03*
X51243Y-34497D03*
X48960Y-27497D03*
X49668Y-28205D03*
X48960Y-29070D03*
X49668Y-29778D03*
X48960Y-30643D03*
X49668Y-31351D03*
X48960Y-32216D03*
X49668Y-32924D03*
X48960Y-33789D03*
X49668Y-34497D03*
X50535Y-24351D03*
X51243Y-25059D03*
X50535Y-25924D03*
X51243Y-26632D03*
X50535Y-27497D03*
X51243Y-28205D03*
X50535Y-30643D03*
X51243Y-31351D03*
X50535Y-32216D03*
X51243Y-32924D03*
X53685Y-30643D03*
X54393Y-31351D03*
X52110Y-24351D03*
X52818Y-25059D03*
X52110Y-25924D03*
X52818Y-26632D03*
X52110Y-27497D03*
X52818Y-28205D03*
X52110Y-29070D03*
X52818Y-29778D03*
X52110Y-30643D03*
X52818Y-31351D03*
X52110Y-32216D03*
X52818Y-32924D03*
X52110Y-33789D03*
X52818Y-34497D03*
X53685Y-24351D03*
X54393Y-25059D03*
X53685Y-25924D03*
X54393Y-26632D03*
X53685Y-27497D03*
X54393Y-28205D03*
X53685Y-29070D03*
X54393Y-29778D03*
X48960Y-25924D03*
X49668Y-26632D03*
X30060Y-33789D03*
X30768Y-34497D03*
X26910Y-32216D03*
X27618Y-32924D03*
X26910Y-33789D03*
X27618Y-34497D03*
X28485Y-24351D03*
X29193Y-25059D03*
X28485Y-25924D03*
X29193Y-26632D03*
X28485Y-27497D03*
X29193Y-28205D03*
X28485Y-29070D03*
X29193Y-29778D03*
X28485Y-30643D03*
X29193Y-31351D03*
X28485Y-32216D03*
X29193Y-32924D03*
X28485Y-33789D03*
X29193Y-34497D03*
X30060Y-24351D03*
X30768Y-25059D03*
X30060Y-25924D03*
X30768Y-26632D03*
X30060Y-27497D03*
X30768Y-28205D03*
X30060Y-29070D03*
X30768Y-29778D03*
X30060Y-30643D03*
X30768Y-31351D03*
X30060Y-32216D03*
X30768Y-32924D03*
X26910Y-30643D03*
X27618Y-31351D03*
X31635Y-24351D03*
X32343Y-25059D03*
X31635Y-25924D03*
X32343Y-26632D03*
X31635Y-27497D03*
X32343Y-28205D03*
X31635Y-29070D03*
X32343Y-29778D03*
X31635Y-30643D03*
X32343Y-31351D03*
X31635Y-32216D03*
X32343Y-32924D03*
X31635Y-33789D03*
X32343Y-34497D03*
X33210Y-24351D03*
X33918Y-25059D03*
X33210Y-25924D03*
X33918Y-26632D03*
X33210Y-27497D03*
X33918Y-28205D03*
X33210Y-29070D03*
X33918Y-29778D03*
X33210Y-30643D03*
X33918Y-31351D03*
X33210Y-32216D03*
X33918Y-32924D03*
X33210Y-33789D03*
X33918Y-34497D03*
X34785Y-24351D03*
X35493Y-25059D03*
X23760Y-27497D03*
X24468Y-28205D03*
X20610Y-25924D03*
X21318Y-26632D03*
X20610Y-27497D03*
X21318Y-28205D03*
X20610Y-29070D03*
X21318Y-29778D03*
X20610Y-30643D03*
X21318Y-31351D03*
X20610Y-32216D03*
X21318Y-32924D03*
X20610Y-33789D03*
X21318Y-34497D03*
X22185Y-24351D03*
X22893Y-25059D03*
X22185Y-25924D03*
X22893Y-26632D03*
X22185Y-27497D03*
X22893Y-28205D03*
X22185Y-29070D03*
X22893Y-29778D03*
X22185Y-30643D03*
X22893Y-31351D03*
X22185Y-32216D03*
X22893Y-32924D03*
X22185Y-33789D03*
X22893Y-34497D03*
X23760Y-24351D03*
X24468Y-25059D03*
X23760Y-25924D03*
X24468Y-26632D03*
X34785Y-25924D03*
X35493Y-26632D03*
X23760Y-29070D03*
X24468Y-29778D03*
X23760Y-30643D03*
X24468Y-31351D03*
X23760Y-32216D03*
X24468Y-32924D03*
X23760Y-33789D03*
X24468Y-34497D03*
X25335Y-24351D03*
X26043Y-25059D03*
X25335Y-25924D03*
X26043Y-26632D03*
X25335Y-27497D03*
X26043Y-28205D03*
X25335Y-29070D03*
X26043Y-29778D03*
X25335Y-30643D03*
X26043Y-31351D03*
X25335Y-32216D03*
X26043Y-32924D03*
X25335Y-33789D03*
X26043Y-34497D03*
X26910Y-24351D03*
X27618Y-25059D03*
X26910Y-25924D03*
X27618Y-26632D03*
X26910Y-27497D03*
X27618Y-28205D03*
X26910Y-29070D03*
X27618Y-29778D03*
X44235Y-33789D03*
X44943Y-34497D03*
X41085Y-32216D03*
X41793Y-32924D03*
X41085Y-33789D03*
X41793Y-34497D03*
X42660Y-24351D03*
X43368Y-25059D03*
X42660Y-25924D03*
X43368Y-26632D03*
X42660Y-27497D03*
X43368Y-28205D03*
X42660Y-29070D03*
X43368Y-29778D03*
X42660Y-30643D03*
X43368Y-31351D03*
X42660Y-32216D03*
X43368Y-32924D03*
X42660Y-33789D03*
X43368Y-34497D03*
X44235Y-24351D03*
X44943Y-25059D03*
X44235Y-25924D03*
X44943Y-26632D03*
X44235Y-27497D03*
X44943Y-28205D03*
X44235Y-29070D03*
X44943Y-29778D03*
X44235Y-30643D03*
X44943Y-31351D03*
X44235Y-32216D03*
X44943Y-32924D03*
X41085Y-30643D03*
X41793Y-31351D03*
X45810Y-24351D03*
X46518Y-25059D03*
X45810Y-25924D03*
X46518Y-26632D03*
X45810Y-27497D03*
X46518Y-28205D03*
X45810Y-29070D03*
X46518Y-29778D03*
X45810Y-30643D03*
X46518Y-31351D03*
X45810Y-32216D03*
X46518Y-32924D03*
X45810Y-33789D03*
X46518Y-34497D03*
X47385Y-24351D03*
X48093Y-25059D03*
X47385Y-25924D03*
X48093Y-26632D03*
X47385Y-27497D03*
X48093Y-28205D03*
X47385Y-29070D03*
X48093Y-29778D03*
X47385Y-30643D03*
X48093Y-31351D03*
X47385Y-32216D03*
X48093Y-32924D03*
X47385Y-33789D03*
X48093Y-34497D03*
X48960Y-24351D03*
X49668Y-25059D03*
X37935Y-29070D03*
X38643Y-29778D03*
X34785Y-27497D03*
X35493Y-28205D03*
X34785Y-29070D03*
X35493Y-29778D03*
X34785Y-30643D03*
X35493Y-31351D03*
X34785Y-32216D03*
X35493Y-32924D03*
X34785Y-33789D03*
X35493Y-34497D03*
X36360Y-24351D03*
X37068Y-25059D03*
X36360Y-25924D03*
X37068Y-26632D03*
X36360Y-27497D03*
X37068Y-28205D03*
X36360Y-29070D03*
X37068Y-29778D03*
X36360Y-30643D03*
X37068Y-31351D03*
X36360Y-32216D03*
X37068Y-32924D03*
X36360Y-33789D03*
X37068Y-34497D03*
X37935Y-24351D03*
X38643Y-25059D03*
X37935Y-25924D03*
X38643Y-26632D03*
X37935Y-27497D03*
X38643Y-28205D03*
X20610Y-24351D03*
X21318Y-25059D03*
X37935Y-30643D03*
X38643Y-31351D03*
X37935Y-32216D03*
X38643Y-32924D03*
X37935Y-33789D03*
X38643Y-34497D03*
X39510Y-24351D03*
X40218Y-25059D03*
X39510Y-25924D03*
X40218Y-26632D03*
X39510Y-27497D03*
X40218Y-28205D03*
X39510Y-29070D03*
X40218Y-29778D03*
X39510Y-30643D03*
X40218Y-31351D03*
X39510Y-32216D03*
X40218Y-32924D03*
X39510Y-33789D03*
X40218Y-34497D03*
X41085Y-24351D03*
X41793Y-25059D03*
X41085Y-25924D03*
X41793Y-26632D03*
X41085Y-27497D03*
X41793Y-28205D03*
X41085Y-29070D03*
X41793Y-29778D03*
X20574Y-23622D03*
X21354Y-23622D03*
X22149Y-23622D03*
X22929Y-23622D03*
X23724Y-23622D03*
X24504Y-23622D03*
X25299Y-23622D03*
X26079Y-23622D03*
X26874Y-23622D03*
X27654Y-23622D03*
X28449Y-23622D03*
X29229Y-23622D03*
X30024Y-23622D03*
X30804Y-23622D03*
X31599Y-23622D03*
X32379Y-23622D03*
X33174Y-23622D03*
X33954Y-23622D03*
X34749Y-23622D03*
X35529Y-23622D03*
X36324Y-23622D03*
X37104Y-23622D03*
X37899Y-23622D03*
X38679Y-23622D03*
X39474Y-23622D03*
X40254Y-23622D03*
X41049Y-23622D03*
X41829Y-23622D03*
X42624Y-23622D03*
X43404Y-23622D03*
X44199Y-23622D03*
X44979Y-23622D03*
X45774Y-23622D03*
X46554Y-23622D03*
X47349Y-23622D03*
X48129Y-23622D03*
X48924Y-23622D03*
X49704Y-23622D03*
X50499Y-23622D03*
X51279Y-23622D03*
X52074Y-23622D03*
X52854Y-23622D03*
X53649Y-23622D03*
X54429Y-23622D03*
X55224Y-23622D03*
X56004Y-23622D03*
X56799Y-23622D03*
X57579Y-23622D03*
M02*
